# xmcd CD database file
#
# Track frame offsets:
#	150
#	52745
#	93256
#	148941
#	166984
#	195583
#	216506
#	251450
#	263221
#	300373
#
# Disc length: 4469 seconds
#
# Revision: 0
# Processed by: cddbd v1.5.2PL0 Copyright (c) Steve Scherf et al.
# Submitted via: CDex 1.70beta2
#
DISCID=8611730a
DTITLE=Ping Machine - Random Issues
DYEAR=2009
DGENRE=Jazz
TTITLE0=RANDOM ISSUES
TTITLE1=LADRILLEROS
TTITLE2=ET-FUR-FUR - NOINE-FUR-FUR
TTITLE3=MACHINATION - PART1 - NI L'UN NI L'AUTRE
TTITLE4=MACHINATION - PART2 - CHEMINS VIVANTS
TTITLE5=MACHINATION - PART3 - PROPAGANDE
TTITLE6=MACHINATION - PART4 - LES MEUTES
TTITLE7=MACHINATION - PART5 - MERCI
TTITLE8=METAL LIQUIDE
TTITLE9=BLUES FOR CARLOTTA
EXTD=YEAR: 2009
EXTT0=
EXTT1=
EXTT2=
EXTT3=
EXTT4=
EXTT5=
EXTT6=
EXTT7=
EXTT8=
EXTT9=
PLAYORDER=
